<?xml version="1.0" standalone="no"?>
<!DOCTYPE svg PUBLIC "-//W3C//DTD SVG 20010904//EN"
 "http://www.w3.org/TR/2001/REC-SVG-20010904/DTD/svg10.dtd">
<svg version="1.0" xmlns="http://www.w3.org/2000/svg"
 width="2007.000000pt" height="726.000000pt" viewBox="0 0 2007.000000 726.000000"
 preserveAspectRatio="xMidYMid meet">

<g transform="translate(0.000000,726.000000) scale(0.100000,-0.100000)"
fill="#000000" stroke="none">
<path d="M2110 7253 c-202 -19 -271 -27 -370 -44 -861 -148 -1444 -637 -1640
-1374 -104 -391 -96 -872 20 -1226 77 -235 181 -397 393 -612 151 -153 245
-217 506 -344 234 -114 376 -172 666 -270 238 -81 306 -102 700 -218 492 -145
762 -240 939 -329 399 -201 574 -354 671 -584 119 -284 123 -750 11 -1087
-146 -434 -451 -727 -922 -884 -243 -81 -474 -114 -804 -114 -434 0 -779 78
-1151 263 -317 156 -572 430 -759 815 -57 117 -134 327 -160 433 l-12 52 -99
0 -99 0 0 -722 0 -722 56 -57 56 -56 216 152 217 152 90 -49 c529 -288 1107
-428 1770 -428 1476 1 2397 643 2541 1772 29 233 8 566 -52 803 -64 254 -186
509 -317 665 -172 205 -335 330 -656 503 -417 225 -619 302 -1576 607 -396
126 -591 200 -815 311 -245 122 -338 196 -437 345 -154 236 -216 520 -182 832
77 714 610 1182 1424 1253 422 36 776 -39 1184 -252 268 -139 419 -274 583
-519 125 -186 226 -419 293 -672 l32 -123 97 -3 96 -3 0 728 0 729 -53 52 -53
53 -215 -148 -214 -148 -90 53 c-485 287 -1022 425 -1634 420 -119 0 -232 -3
-251 -5z"/>
<path d="M7580 7145 c0 -30 1 -55 3 -55 7 0 811 -190 813 -193 1 -1 -766 -821
-1706 -1822 l-1709 -1820 -1 -138 c0 -78 4 -137 9 -135 5 1 183 191 396 421
213 229 391 417 394 417 4 0 574 -846 1267 -1880 l1259 -1879 818 -1 818 0 -3
57 -3 57 -293 80 -292 80 -1367 2066 c-752 1136 -1384 2091 -1405 2122 l-38
57 1077 1158 1077 1158 360 97 c199 54 362 98 364 98 1 0 2 25 2 55 l0 55
-920 0 -920 0 0 -55z"/>
<path d="M16585 2630 c-137 -16 -251 -29 -252 -29 -2 -1 -3 -12 -3 -24 0 -25
-3 -24 158 -58 l52 -11 0 -368 0 -368 -72 28 c-194 75 -448 82 -655 19 -245
-76 -422 -255 -502 -507 -39 -125 -50 -190 -58 -332 -16 -315 64 -587 220
-744 113 -114 224 -166 394 -186 233 -26 456 40 618 183 30 26 56 47 60 47 4
0 3 -39 0 -87 -7 -88 -7 -88 22 -115 l29 -28 244 20 c135 11 255 20 267 20 33
0 33 47 1 55 -13 3 -59 13 -103 23 l-80 18 -3 1209 -2 1209 -27 28 c-15 15
-34 28 -42 27 -9 -1 -128 -14 -266 -29z m-202 -859 c37 -12 88 -31 112 -41
l45 -19 0 -666 0 -666 -22 -30 c-34 -46 -131 -115 -194 -138 -324 -122 -587
77 -658 495 -36 213 -29 452 19 640 61 239 192 391 380 440 73 20 233 12 318
-15z"/>
<path d="M17520 2573 c-197 -104 -183 -389 24 -468 55 -21 164 -17 213 8 143
74 184 275 81 393 -56 64 -104 87 -188 92 -68 3 -80 1 -130 -25z"/>
<path d="M12164 2213 c-71 -122 -171 -232 -272 -300 -54 -36 -203 -102 -229
-103 -7 0 -13 -9 -13 -20 0 -19 7 -20 104 -20 l105 0 4 -667 c4 -722 3 -706
59 -818 80 -157 232 -237 453 -238 122 0 197 15 293 59 73 33 92 46 157 103
l36 31 -20 26 -19 25 -34 -29 c-109 -96 -279 -123 -394 -64 -64 33 -104 88
-131 179 -15 51 -17 136 -21 726 l-3 667 295 0 296 0 0 40 0 40 -295 0 -295 0
0 183 c0 181 0 184 -24 206 l-24 23 -28 -49z"/>
<path d="M13305 1849 c-137 -15 -258 -28 -267 -28 -12 -1 -18 -9 -18 -25 0
-22 7 -26 91 -45 50 -12 97 -21 104 -21 11 0 14 -107 18 -622 3 -557 5 -629
21 -682 82 -278 310 -412 638 -376 195 22 374 94 512 206 l69 56 -7 -103 -7
-104 28 -27 29 -28 244 20 c135 11 255 20 268 20 19 0 23 4 20 27 -3 25 -8 28
-103 48 l-100 21 -3 820 -2 820 -28 26 -27 25 -250 -28 c-137 -15 -258 -28
-267 -28 -12 -1 -18 -9 -18 -25 0 -28 -1 -28 123 -52 l87 -18 0 -667 0 -667
-62 -57 c-188 -170 -498 -210 -650 -85 -68 57 -111 158 -128 305 -5 50 -10
350 -10 680 l-1 590 -24 28 c-13 15 -25 26 -27 26 -2 -1 -115 -14 -253 -30z"/>
<path d="M17545 1849 c-137 -15 -258 -28 -267 -28 -12 -1 -18 -9 -18 -25 0
-22 7 -26 91 -45 50 -12 97 -21 105 -21 12 0 14 -112 14 -780 l0 -779 -105
-32 c-94 -29 -105 -35 -105 -56 l0 -23 405 0 405 0 0 23 c0 19 -13 26 -110 56
l-110 34 0 826 -1 826 -24 28 c-13 15 -25 26 -27 26 -2 -1 -115 -14 -253 -30z"/>
<path d="M10675 1858 c-286 -19 -470 -158 -520 -393 -18 -86 -18 -119 -1 -217
21 -113 59 -189 126 -251 92 -86 173 -120 519 -217 314 -88 388 -152 385 -331
-3 -163 -110 -280 -297 -324 -74 -17 -225 -19 -299 -4 -179 37 -300 155 -358
349 -16 54 -17 55 -58 58 l-42 3 0 -199 c0 -195 0 -199 23 -220 l24 -22 19 21
c36 40 50 42 112 14 193 -85 522 -105 741 -45 271 75 395 234 396 505 0 107
-1 112 -39 189 -54 112 -136 191 -258 250 -51 25 -196 80 -323 122 -245 81
-310 110 -362 162 -43 43 -68 126 -59 200 22 184 166 292 391 292 228 0 372
-109 450 -340 l22 -65 41 -3 42 -3 0 192 c0 183 -1 194 -21 215 l-21 23 -38
-30 -37 -30 -49 22 c-155 67 -311 91 -509 77z"/>
<path d="M19075 1858 c-241 -17 -421 -101 -582 -272 -115 -121 -179 -252 -214
-436 -18 -96 -15 -328 5 -425 59 -270 208 -465 447 -586 224 -112 550 -126
796 -34 97 37 193 97 270 168 198 185 286 428 269 742 -10 187 -53 332 -139
462 -126 190 -303 312 -527 364 -70 16 -226 25 -325 17z m280 -102 c224 -111
336 -410 322 -864 -10 -327 -71 -516 -212 -658 -96 -97 -150 -119 -300 -119
-98 0 -116 3 -165 26 -174 83 -275 250 -326 539 -20 114 -23 394 -5 517 38
266 134 451 279 544 67 43 140 60 240 55 82 -3 101 -7 167 -40z"/>
</g>
</svg>
